<?xml version="1.0" encoding="UTF-8"?>
<svg width="31px" height="25px" viewBox="0 0 31 25" version="1.1" 
    xmlns="http://www.w3.org/2000/svg" 
    xmlns:xlink="http://www.w3.org/1999/xlink">
    <!-- Generator: Sketch 55.2 (78181) - https://sketchapp.com -->
    <title>形状</title>
    <desc>Created with Sketch.</desc>
    <g id="页面1" stroke="none" stroke-width="1" fill="none" fill-rule="evenodd">
        <g id="10_key_visaul_client_info_2_adjust" transform="translate(-943.000000, -745.000000)" fill="#00438B" fill-rule="nonzero">
            <g id="编组-13" transform="translate(42.000000, 742.000000)">
                <path d="M913,3 L920,3 C926.627417,3 932,8.372583 932,15 L932,16 C932,22.627417 926.627417,28 920,28 L913,28 C906.372583,28 901,22.627417 901,16 L901,15 C901,8.372583 906.372583,3 913,3 Z M923.321192,16.2330955 C923.773731,16.2839164 924,16.0443493 924,15.5143942 C924,14.9844392 923.773731,14.7194617 923.321192,14.7194617 L917.274664,14.7194617 L917.274664,8.68937827 C917.274664,8.22979276 917.016527,8 916.500253,8 C915.98398,8 915.734528,8.22979276 915.751897,8.68937827 L915.751897,14.7194617 L909.705281,14.7194617 C909.235094,14.7194617 909,14.979881 909,15.5007197 C909,16.0215584 909.235094,16.2656837 909.705281,16.2330955 L915.751897,16.2330955 L915.751897,22.2630689 C915.772164,22.7543563 916.031025,23 916.528481,23 C917.025936,23 917.274664,22.7543563 917.274664,22.2630689 L917.274664,16.2330955 L923.321192,16.2330955 Z" id="形状"></path>
            </g>
        </g>
    </g>
</svg>
