<?xml version="1.0" encoding="UTF-8"?>
<svg width="24px" height="18px" viewBox="0 0 24 18" version="1.1" xmlns="http://www.w3.org/2000/svg" xmlns:xlink="http://www.w3.org/1999/xlink">
    <!-- Generator: Sketch 55.1 (78136) - https://sketchapp.com -->
    <title>形状</title>
    <desc>Created with Sketch.</desc>
    <g id="页面1" stroke="none" stroke-width="1" fill="none" fill-rule="evenodd">
        <g id="07_key_visaul_miancard_adjustment" transform="translate(-201.000000, -116.000000)" fill="#00438B" fill-rule="nonzero">
            <g id="编组-2" transform="translate(201.000000, 116.000000)">
                <path d="M7,0 L17,0 C20.8659932,-7.10171439e-16 24,3.13400675 24,7 L24,11 C24,14.8659932 20.8659932,18 17,18 L7,18 C3.13400675,18 4.73447626e-16,14.8659932 0,11 L0,7 C-4.73447626e-16,3.13400675 3.13400675,7.10171439e-16 7,0 Z M16.8211921,9.73309548 C17.2737307,9.78391636 17.5,9.54434928 17.5,9.01439424 C17.5,8.48443921 17.2737307,8.21946169 16.8211921,8.21946169 L12.7746638,8.21946169 L12.7746638,4.18937827 C12.7746638,3.72979276 12.516527,3.5 12.0002533,3.5 C11.4839797,3.5 11.2345277,3.72979276 11.2518974,4.18937827 L11.2518974,8.21946169 L7.20528065,8.21946169 C6.73509355,8.21946169 6.5,8.47988103 6.5,9.00071971 C6.5,9.5215584 6.73509355,9.76568365 7.20528065,9.73309548 L11.2518974,9.73309548 L11.2518974,13.7630689 C11.2721643,14.2543563 11.5310255,14.5 12.0284808,14.5 C12.5259361,14.5 12.7746638,14.2543563 12.7746638,13.7630689 L12.7746638,9.73309548 L16.8211921,9.73309548 Z" id="形状"></path>
            </g>
        </g>
    </g>
</svg>