<?xml version="1.0" encoding="UTF-8"?>
<svg width="28px" height="28px" viewBox="0 0 28 28" version="1.1" xmlns="http://www.w3.org/2000/svg" xmlns:xlink="http://www.w3.org/1999/xlink">
    <!-- Generator: Sketch 57.1 (83088) - https://sketch.com -->
    <title>AddTabButton</title>
    <desc>Created with Sketch.</desc>
    <g id="AddTabButton" stroke="none" stroke-width="1" fill="none" fill-rule="evenodd">
        <rect id="BG_Button" fill="#D8D8D8" x="0" y="0" width="28" height="28" rx="4"></rect>
        <path d="M19.903125,12.95625 L14.9578125,12.95625 L14.9578125,8.009375 C14.9578125,7.459375 14.5078125,7.0109375 13.959375,7.0109375 C13.409375,7.0109375 12.9609375,7.4609375 12.9609375,8.009375 L12.9609375,12.95625 L8.0125,12.95625 C7.4625,12.95625 7.0140625,13.40625 7.0140625,13.9546875 C7.0140625,14.5046875 7.4640625,14.953125 8.0125,14.953125 L12.959375,14.953125 L12.959375,19.9 C12.959375,20.45 13.409375,20.8984375 13.9578125,20.8984375 C14.5078125,20.8984375 14.95625,20.4484375 14.95625,19.9 L14.95625,14.953125 L19.903125,14.953125 C20.453125,14.953125 20.9015666,14.503125 20.9015666,13.9546875 C20.903125,13.40625 20.453125,12.95625 19.903125,12.95625 Z" id="shape" fill="#FFFFFF"></path>
    </g>
</svg>