<?xml version="1.0" encoding="UTF-8"?>
<svg width="27px" height="26px" viewBox="0 0 27 26" version="1.1" xmlns="http://www.w3.org/2000/svg" xmlns:xlink="http://www.w3.org/1999/xlink">
    <!-- Generator: Sketch 55.1 (78136) - https://sketchapp.com -->
    <title>编组 14</title>
    <desc>Created with Sketch.</desc>
    <g id="页面1" stroke="none" stroke-width="1" fill="none" fill-rule="evenodd">
        <g id="10_key_visaul_client_info_2" transform="translate(-955.000000, -71.000000)" fill="#FFFFFF" fill-rule="nonzero">
            <g id="编组-14" transform="translate(955.000000, 70.000000)">
                <path d="M17.4828622,5.37024192 L10.7813237,12.0717804 C10.4631699,12.3899342 10.4631699,12.9010112 10.7813237,13.219165 C11.0977853,13.5356265 11.6105545,13.5356265 11.927016,13.219165 L18.2037853,6.94239577 L24.4805545,13.219165 C24.797016,13.5356265 25.3097853,13.5356265 25.6262468,13.219165 C25.9444006,12.9010112 25.9444006,12.3899342 25.6262468,12.0717804 L18.9247083,5.37024192 C18.4559391,4.903165 18.1056314,4.85070346 17.4828622,5.37024192 Z" id="路径" transform="translate(18.203785, 9.228256) rotate(-135.000000) translate(-18.203785, -9.228256) "></path>
                <path d="M9.35703846,22.6540359 L16.0331923,15.9541898 C16.3496538,15.6377282 16.3496538,15.124959 16.0331923,14.8068052 C15.7167308,14.4903436 15.2056538,14.4903436 14.8891923,14.8068052 L8.63611538,21.0835744 L2.38134615,14.8068052 C2.06488462,14.4903436 1.55380769,14.4903436 1.23734615,14.8068052 C0.920884615,15.124959 0.920884615,15.6377282 1.23734615,15.9541898 L7.9135,22.6540359 C8.24688462,22.9806513 8.91196154,23.0991128 9.35703846,22.6540359 Z" id="路径" transform="translate(8.635269, 18.757282) rotate(-135.000000) translate(-8.635269, -18.757282) "></path>
            </g>
        </g>
    </g>
</svg>