<?xml version="1.0" encoding="UTF-8"?>
<svg width="17px" height="17px" viewBox="0 0 17 17" version="1.1" xmlns="http://www.w3.org/2000/svg" xmlns:xlink="http://www.w3.org/1999/xlink">
    <!-- Generator: Sketch 55.1 (78136) - https://sketchapp.com -->
    <title>展开 上下</title>
    <desc>Created with Sketch.</desc>
    <g id="页面1" stroke="none" stroke-width="1" fill="none" fill-rule="evenodd">
        <g id="07_key_visaul_miancard" transform="translate(-965.000000, -75.000000)" fill="#FFFFFF" fill-rule="nonzero">
            <g id="ClientIInfo" transform="translate(0.000000, 64.000000)">
                <g id="展开-上下" transform="translate(974.011265, 19.972804) rotate(-315.000000) translate(-974.011265, -19.972804) translate(966.011265, 8.972804)">
                    <path d="M6.94226923,0.370241921 L0.240730769,7.07178038 C-0.0774230769,7.38993423 -0.0774230769,7.90101115 0.240730769,8.219165 C0.557192308,8.53562654 1.06996154,8.53562654 1.38642308,8.219165 L7.66319231,1.94239577 L13.9399615,8.219165 C14.2564231,8.53562654 14.7691923,8.53562654 15.0856538,8.219165 C15.4038077,7.90101115 15.4038077,7.38993423 15.0856538,7.07178038 L8.38411538,0.370241921 C7.91534615,-0.0968350021 7.56503846,-0.149296541 6.94226923,0.370241921 Z M8.35703846,21.6290112 L15.0331923,14.929165 C15.3496538,14.6127035 15.3496538,14.0999342 15.0331923,13.7817804 C14.7167308,13.4653188 14.2056538,13.4653188 13.8891923,13.7817804 L7.63611538,20.0585496 L1.38134615,13.7817804 C1.06488462,13.4653188 0.553807692,13.4653188 0.237346154,13.7817804 C-0.0791153846,14.0999342 -0.0791153846,14.6127035 0.237346154,14.929165 L6.9135,21.6290112 C7.24688462,21.9556265 7.91196154,22.0740881 8.35703846,21.6290112 Z" id="形状"></path>
                </g>
            </g>
        </g>
    </g>
</svg>