<?xml version="1.0" encoding="UTF-8"?>
<svg width="15px" height="15px" viewBox="0 0 15 15" version="1.1" xmlns="http://www.w3.org/2000/svg" xmlns:xlink="http://www.w3.org/1999/xlink">
    <!-- Generator: Sketch 55.2 (78181) - https://sketchapp.com -->
    <title>路径</title>
    <desc>Created with Sketch.</desc>
    <g id="页面1" stroke="none" stroke-width="1" fill="none" fill-rule="evenodd">
        <g id="05_key_visaul_1st_login_tab" transform="translate(-62.000000, -133.000000)" fill="#FFFFFF">
            <path d="M76.3211921,141.233095 L70.2746638,141.233095 L70.2746638,147.263069 C70.2746638,147.754356 70.0259361,148 69.5284808,148 C69.0310255,148 68.7721643,147.754356 68.7518974,147.263069 L68.7518974,141.233095 L62.7052807,141.233095 C62.2350936,141.265684 62,141.021558 62,140.50072 C62,139.979881 62.2350936,139.719462 62.7052807,139.719462 L68.7518974,139.719462 L68.7518974,133.689378 C68.7345277,133.229793 68.9839797,133 69.5002533,133 C70.016527,133 70.2746638,133.229793 70.2746638,133.689378 L70.2746638,139.719462 L76.3211921,139.719462 C76.7737307,139.719462 77,139.984439 77,140.514394 C77,141.044349 76.7737307,141.283916 76.3211921,141.233095 Z" id="路径"></path>
        </g>
    </g>
</svg>