<?xml version="1.0" encoding="UTF-8"?>
<svg width="18px" height="18px" viewBox="0 0 18 18" version="1.1" xmlns="http://www.w3.org/2000/svg" xmlns:xlink="http://www.w3.org/1999/xlink">
    <!-- Generator: Sketch 55.2 (78181) - https://sketchapp.com -->
    <title>关闭</title>
    <desc>Created with Sketch.</desc>
    <g id="页面1" stroke="none" stroke-width="1" fill="none" fill-rule="evenodd">
        <g id="09_key_visaul_detail_search_result_adjustment" transform="translate(-964.000000, -86.000000)" fill="#00438B" fill-rule="nonzero">
            <g id="关闭" transform="translate(964.000000, 86.000000)">
                <path d="M10.3392857,8.78035714 L17.1669643,1.94732143 C17.60625,1.50535714 17.60625,0.795535714 17.1669643,0.353571429 C16.7276786,-0.0883928571 16.0151786,-0.0883928571 15.5732143,0.353571429 L8.74553571,7.18660714 L1.92321429,0.353571429 C1.48392857,-0.0883928571 0.771428571,-0.0883928571 0.329464286,0.353571429 C-0.109821429,0.795535714 -0.109821429,1.50535714 0.329464286,1.94732143 L7.15714286,8.78035714 L0.329464286,15.6107143 C-0.109821429,16.0526786 -0.109821429,16.7625 0.329464286,17.2044643 C0.546428571,17.4241071 0.835714286,17.5366071 1.125,17.5366071 C1.41428571,17.5366071 1.70089286,17.4267857 1.92053571,17.2044643 L8.74285714,10.3741071 L15.5678571,17.2044643 C15.7848214,17.4241071 16.0767857,17.5366071 16.3633929,17.5366071 C16.6526786,17.5366071 16.9392857,17.4267857 17.15625,17.2044643 C17.5955357,16.7625 17.5955357,16.0526786 17.15625,15.6107143 L10.3392857,8.78035714 Z" id="路径"></path>
            </g>
        </g>
    </g>
</svg>