<?xml version="1.0" encoding="UTF-8"?>
<svg width="24px" height="18px" viewBox="0 0 24 18" version="1.1" xmlns="http://www.w3.org/2000/svg" xmlns:xlink="http://www.w3.org/1999/xlink">
    <!-- Generator: Sketch 56.3 (81716) - https://sketch.com -->
    <title>Icon</title>
    <desc>Created with Sketch.</desc>
    <g id="页面1" stroke="none" stroke-width="1" fill="none" fill-rule="evenodd">
        <g id="2-1.详细检索area-输入检索条件-error--" transform="translate(-169.000000, -1261.000000)" fill="#CBCBCB" fill-rule="nonzero">
            <g id="SortButton_disable" transform="translate(169.000000, 1261.000000)">
                <path d="M3,0 L21,0 C22.6568542,-3.04359188e-16 24,1.34314575 24,3 L24,15 C24,16.6568542 22.6568542,18 21,18 L3,18 C1.34314575,18 2.02906125e-16,16.6568542 0,15 L0,3 C-2.02906125e-16,1.34314575 1.34314575,-5.83819232e-16 3,0 Z M6,8 L18,8 L12.9882789,3 L12.9882789,6 L6,6 L6,8 Z M18,10.5 L6,10.5 L11.0117211,15.5 L11.0117211,12.5 L18,12.5 L18,10.5 Z" id="Icon"></path>
            </g>
        </g>
    </g>
</svg>