<?xml version="1.0" encoding="UTF-8"?>
<svg width="24px" height="18px" viewBox="0 0 24 18" version="1.1" xmlns="http://www.w3.org/2000/svg" xmlns:xlink="http://www.w3.org/1999/xlink">
    <!-- Generator: Sketch 56.3 (81716) - https://sketch.com -->
    <title>Icon</title>
    <desc>Created with Sketch.</desc>
    <g id="页面1" stroke="none" stroke-width="1" fill="none" fill-rule="evenodd">
        <g id="2-1.详细检索area-输入检索条件-error--" transform="translate(-41.000000, -1261.000000)" fill="#CBCBCB" fill-rule="nonzero">
            <g id="AddSubtractButton_disable" transform="translate(41.000000, 1261.000000)">
                <path d="M3,0 L21,0 C22.6568542,-3.04359188e-16 24,1.34314575 24,3 L24,15 C24,16.6568542 22.6568542,18 21,18 L3,18 C1.34314575,18 2.02906125e-16,16.6568542 0,15 L0,3 C-2.02906125e-16,1.34314575 1.34314575,-5.83819232e-16 3,0 Z M11.3211921,10.2330955 C11.7737307,10.2839164 12,10.0443493 12,9.51439424 C12,8.98443921 11.7737307,8.71946169 11.3211921,8.71946169 L8.27466378,8.71946169 L8.27466378,5.68937827 C8.27466378,5.22979276 8.01652696,5 7.50025332,5 C6.98397968,5 6.73452771,5.22979276 6.75189741,5.68937827 L6.75189741,8.71946169 L3.70528065,8.71946169 C3.23509355,8.71946169 3,8.97988103 3,9.50071971 C3,10.0215584 3.23509355,10.2656837 3.70528065,10.2330955 L6.75189741,10.2330955 L6.75189741,13.2630689 C6.77216433,13.7543563 7.03102545,14 7.52848078,14 C8.02593612,14 8.27466378,13.7543563 8.27466378,13.2630689 L8.27466378,10.2330955 L11.3211921,10.2330955 Z M20.3211921,10.2330955 C20.7737307,10.2839164 21,10.0443493 21,9.51439424 C21,8.98443921 20.7737307,8.71946169 20.3211921,8.71946169 L14.7052807,8.71946169 C14.2350936,8.71946169 14,8.97988103 14,9.50071971 C14,10.0215584 14.2350936,10.2656837 14.7052807,10.2330955 L20.3211921,10.2330955 Z" id="Icon"></path>
            </g>
        </g>
    </g>
</svg>