<?xml version="1.0" encoding="UTF-8"?>
<svg width="18px" height="20px" viewBox="0 0 18 20" version="1.1" xmlns="http://www.w3.org/2000/svg" xmlns:xlink="http://www.w3.org/1999/xlink">
    <!-- Generator: Sketch 55.1 (78136) - https://sketchapp.com -->
    <title>垃圾桶2</title>
    <desc>Created with Sketch.</desc>
    <g id="页面1" stroke="none" stroke-width="1" fill="none" fill-rule="evenodd" fill-opacity="0.8">
        <g id="10_key_visaul_client_info_2" transform="translate(-377.000000, -74.000000)" fill="#FFFFFF" fill-rule="nonzero">
            <g id="垃圾桶2" transform="translate(377.000000, 74.000000)">
                <polygon id="路径" points="11.3334825 1.59051137 11.3334825 0.01357095 6.46021703 0.01357095 6.46021703 1.59051137 0.01372055 1.59051137 0.01372055 3.24051587 17.9334749 3.24051587 17.9334749 1.59051137"></polygon>
                <path d="M1.774984,4.8214472 L1.774984,19.2134814 L16.1670949,19.2134814 L16.1670949,4.8214472 L1.774984,4.8214472 Z M6.57024802,16.0157263 L4.97138325,16.0157263 L4.97138325,8.01912557 L6.57024802,8.01912557 L6.57024802,16.0157263 Z M9.77045907,16.0157263 L8.1715943,16.0157263 L8.1715943,8.01912557 L9.77045907,8.01912557 L9.77045907,16.0157263 Z M12.967984,16.0157263 L11.3691192,16.0157263 L11.3691192,8.01912557 L12.967984,8.01912557 L12.967984,16.0157263 Z" id="形状"></path>
            </g>
        </g>
    </g>
</svg>