<?xml version="1.0" encoding="UTF-8"?>
<svg width="20px" height="20px" viewBox="0 0 20 20" version="1.1" xmlns="http://www.w3.org/2000/svg" xmlns:xlink="http://www.w3.org/1999/xlink">
    <!-- Generator: Sketch 57.1 (83088) - https://sketch.com -->
    <title>iconmonstr-time-17</title>
    <desc>Created with Sketch.</desc>
    <g id="Basic-frame-and-parts" stroke="none" stroke-width="1" fill="none" fill-rule="evenodd">
        <g id="05_AS01_SA010100_顧客基本情報検索" transform="translate(-904.000000, -90.000000)" fill="#00438B" fill-rule="nonzero">
            <g id="iconmonstr-time-17" transform="translate(904.000000, 90.000000)">
                <path d="M20,10 C20,15.5225 15.5225,20 10,20 C4.4775,20 0,15.5225 0,10 L1.66666667,10 C1.66666667,14.595 5.405,18.3333333 10,18.3333333 C14.595,18.3333333 18.3333333,14.595 18.3333333,10 C18.3333333,5.405 14.595,1.66666667 10,1.66666667 C7.68583333,1.66666667 5.59416667,2.6175 4.08416667,4.1475 L5.80166667,5.865 L0,6.99333333 L1.0875,1.14916667 L2.90333333,2.96583333 C4.71333333,1.13583333 7.22166667,0 10,0 C15.5225,0 20,4.4775 20,10 Z M9.16666667,5 L9.16666667,11.6666667 L15,11.6666667 L15,10 L10.8333333,10 L10.8333333,5 L9.16666667,5 Z" id="Shape"></path>
            </g>
        </g>
    </g>
</svg>