<?xml version="1.0" encoding="UTF-8"?>
<svg width="20px" height="20px" viewBox="0 0 20 20" version="1.1" xmlns="http://www.w3.org/2000/svg" xmlns:xlink="http://www.w3.org/1999/xlink">
    <!-- Generator: Sketch 55.1 (78136) - https://sketchapp.com -->
    <title>_历史小</title>
    <desc>Created with Sketch.</desc>
    <g id="页面1" stroke="none" stroke-width="1" fill="none" fill-rule="evenodd" fill-opacity="0.8">
        <g id="10_key_visaul_client_info_2" transform="translate(-337.000000, -74.000000)" fill="#FFFFFF" fill-rule="nonzero">
            <g id="_历史小" transform="translate(337.000000, 74.000000)">
                <path d="M10,20 C4.4775,20 0,15.5225 0,10 C0,4.4775 4.4775,0 10,0 C15.5225,0 20,4.4775 20,10 C20,15.5225 15.5225,20 10,20 Z M10.8333333,10.4908333 L10.8333333,5.83083334 C10.8333333,5.3775 10.46,5 10,5 C9.53666666,5 9.16664929,5.37166666 9.16664929,5.83083334 L9.16664929,10.8358333 C9.16524599,11.0542603 9.25103233,11.2642269 9.405,11.4191667 L11.7733333,13.7875 C11.9293839,13.9426021 12.1407783,14.0291726 12.3607948,14.0280883 C12.5808113,14.0269834 12.7913337,13.9383138 12.9458333,13.7816667 C13.2689042,13.4585308 13.2715064,12.9355011 12.9516667,12.6091667 L10.8333333,10.4908333 Z" id="形状"></path>
            </g>
        </g>
    </g>
</svg>