<?xml version="1.0" encoding="UTF-8"?>
<svg width="14px" height="14px" viewBox="0 0 14 14" version="1.1" xmlns="http://www.w3.org/2000/svg" xmlns:xlink="http://www.w3.org/1999/xlink">
    <!-- Generator: Sketch 57.1 (83088) - https://sketch.com -->
    <title>Shape</title>
    <desc>Created with Sketch.</desc>
    <g id="Symbols" stroke="none" stroke-width="1" fill="none" fill-rule="evenodd">
        <g id="IA01/set" transform="translate(-319.000000, -13.000000)" fill="#FFFFFF" fill-rule="nonzero">
            <path d="M326,14.1666667 C329.2165,14.1666667 331.833333,16.7835 331.833333,20 C331.833333,23.2165 329.2165,25.8333333 326,25.8333333 C322.7835,25.8333333 320.166667,23.2165 320.166667,20 C320.166667,16.7835 322.7835,14.1666667 326,14.1666667 Z M326,13 C322.13425,13 319,16.13425 319,20 C319,23.86575 322.13425,27 326,27 C329.86575,27 333,23.86575 333,20 C333,16.13425 329.86575,13 326,13 Z M328.916667,22.0638333 L326.821333,19.9941667 L328.889833,17.90175 L328.063833,17.0833333 L325.995917,19.1769167 L323.902917,17.1101667 L323.083333,17.92975 L325.17925,20.00175 L323.110167,22.0970833 L323.92975,22.9166667 L326.0035,20.819 L328.09825,22.8898333 L328.916667,22.0638333 L328.916667,22.0638333 Z" id="Shape"></path>
        </g>
    </g>
</svg>