<svg id="レイヤー_1" data-name="レイヤー 1" xmlns="http://www.w3.org/2000/svg" viewBox="0 0 50 30"><title>Logo-CiD</title><path d="M12.36,5.25c-1.89,0-3.76.61-4.64,1.82a9,9,0,0,0-1.31,5.29v5.38A9,9,0,0,0,7.72,23c.88,1.21,2.75,1.82,4.64,1.82h2.13a1.33,1.33,0,0,1,1.33,1.32v2.35a1.33,1.33,0,0,1-1.33,1.32H11.94Q6,29.8,3.09,26T.21,15q0-7.15,2.88-11T11.94.26h15a1.32,1.32,0,0,1,1.32,1.32V5.25Z"/><path d="M46.91,4Q44,.2,38.06.2H35.73a1.32,1.32,0,0,0-1.32,1.32V3.87a1.32,1.32,0,0,0,1.32,1.32h1.91c1.89,0,3.76.61,4.64,1.82a9,9,0,0,1,1.31,5.25v5.38a9,9,0,0,1-1.31,5.29c-.88,1.21-2.75,1.82-4.64,1.82H28.87a.67.67,0,0,1-.66-.66V10.19H22V28.42a1.33,1.33,0,0,0,1.33,1.32h14.4c4,0,7.25-1.27,9.17-3.81s2.88-6.19,2.88-11S48.83,6.55,46.91,4Z"/></svg>