<?xml version="1.0" encoding="UTF-8"?>
<svg width="24px" height="18px" viewBox="0 0 24 18" version="1.1" xmlns="http://www.w3.org/2000/svg" xmlns:xlink="http://www.w3.org/1999/xlink">
    <!-- Generator: Sketch 55.1 (78136) - https://sketchapp.com -->
    <title>形状</title>
    <desc>Created with Sketch.</desc>
    <g id="页面1" stroke="none" stroke-width="1" fill="none" fill-rule="evenodd">
        <g id="07_key_visaul_miancard" transform="translate(-42.000000, -116.000000)" fill="#00438B" fill-rule="nonzero">
            <g id="Main&amp;SubCard" transform="translate(0.000000, 104.000000)">
                <g id="编组-3" transform="translate(42.000000, 12.000000)">
                    <path d="M22.3722449,0 L1.62813796,0 C0.72875534,0 0,0.756115423 0,1.68804331 L0,16.3119567 C0,17.2446787 0.728728,18 1.62813796,18 L13.500229,18 L16.7144703,18 L22.3722449,18 C23.2719831,18 24,17.2446787 24,16.3119567 L24,1.68804328 C24,0.756115423 23.2719831,0 22.3722449,0 Z M14.2503436,12.8892155 L4.92863639,12.8892155 C4.5141973,12.8892155 4.17852187,12.5415045 4.17852187,12.1113185 C4.17852187,11.6818983 4.5141973,11.3334216 4.92863639,11.3334216 L14.2503436,11.3334216 C14.6643998,11.3334216 15.0000752,11.6818983 15.0000752,12.1113185 C15.0000752,12.5415045 14.6643998,12.8892155 14.2503436,12.8892155 Z M19.072102,9.55589798 L4.92863639,9.55589798 C4.5141973,9.55589798 4.17852187,9.20818698 4.17852187,8.77800099 C4.17852187,8.3486091 4.5141973,8.000104 4.92863639,8.000104 L19.072102,8.000104 C19.4857754,8.000104 19.8218337,8.34860913 19.8218337,8.77800099 C19.8218337,9.20818698 19.4857754,9.55589798 19.072102,9.55589798 Z M19.072102,6.22260877 L4.92863639,6.22260877 C4.5141973,6.22260877 4.17852187,5.87410364 4.17852187,5.44451323 C4.17852187,5.01512134 4.5141973,4.66661624 4.92863639,4.66661624 L19.072102,4.66661624 C19.4857754,4.66661624 19.8218337,5.01512137 19.8218337,5.44451323 C19.8218337,5.87413202 19.4857754,6.22260877 19.072102,6.22260877 Z" id="形状"></path>
                </g>
            </g>
        </g>
    </g>
</svg>