<?xml version="1.0" encoding="UTF-8"?>
<svg width="16px" height="16px" viewBox="0 0 16 16" version="1.1" xmlns="http://www.w3.org/2000/svg" xmlns:xlink="http://www.w3.org/1999/xlink">
    <!-- Generator: Sketch 55.2 (78181) - https://sketchapp.com -->
    <title>OpenSubCardButton</title>
    <desc>Created with Sketch.</desc>
    <g id="组件" stroke="none" stroke-width="1" fill="none" fill-rule="evenodd">
        <g id="SubCard1" transform="translate(-272.000000, -8.000000)" fill="#FFFFFF" fill-rule="nonzero">
            <g id="OpenSubCardButton" transform="translate(272.000000, 8.000000)">
                <path d="M14.7692308,10.4615385 C14.7692308,10.1216709 15.0447478,9.84615385 15.3846154,9.84615385 C15.7244829,9.84615385 16,10.1216709 16,10.4615385 L16,14.7710769 C15.9996605,15.4496517 15.4496517,15.9996605 14.7710769,16 L1.22892308,16 C0.550348296,15.9996605 0.000339542111,15.4496517 1.42108547e-14,14.7710769 L1.42108547e-14,1.22892308 C1.42108547e-14,0.550153846 0.550769231,0 1.22892308,0 L5.53846154,0 C5.87832908,0 6.15384615,0.275517077 6.15384615,0.615384615 C6.15384615,0.955252154 5.87832908,1.23076923 5.53846154,1.23076923 L1.84738462,1.23076923 C1.68359699,1.22994575 1.52627954,1.29464592 1.41046273,1.41046273 C1.29464592,1.52627954 1.22994575,1.68359699 1.23076923,1.84738462 L1.23076923,14.1526154 C1.22994575,14.316403 1.29464592,14.4737205 1.41046273,14.5895373 C1.52627954,14.7053541 1.68359699,14.7700543 1.84738462,14.7692308 L14.1526154,14.7692308 C14.316403,14.7700543 14.4737205,14.7053541 14.5895373,14.5895373 C14.7053541,14.4737205 14.7700543,14.316403 14.7692308,14.1526154 L14.7692308,10.4615385 Z M5.43876923,11.4707692 C5.32354157,11.5858127 5.16723746,11.6502232 5.00441181,11.6497637 C4.84158615,11.6492994 4.68565001,11.584003 4.57107692,11.4683077 C4.45522982,11.353816 4.38982827,11.1978498 4.38936375,11.0349735 C4.38890415,10.8720973 4.45341974,10.7157625 4.56861538,10.6006154 L13.8276923,1.34707692 L10.4406154,1.36123077 C10.2786873,1.36223139 10.1231459,1.29813658 10.0089329,1.18334504 C9.89471997,1.0685535 9.83141194,0.912690163 9.83323077,0.750769231 C9.83653352,0.413474097 10.1082641,0.14037802 10.4455385,0.135384615 L15.3538462,0.115061405 C15.5152866,0.113919599 15.6704506,0.177540016 15.7846091,0.291698569 C15.8987677,0.405857121 15.9623881,0.561021113 15.9612463,0.722461538 L15.9409231,5.63076923 C15.9359297,5.96804357 15.6628336,6.23977417 15.3255385,6.24307692 C15.1637236,6.24472958 15.0080198,6.1813481 14.8933623,6.06715339 C14.7787048,5.95295869 14.7146941,5.79751251 14.7156923,5.63569231 L14.7298462,2.18584615 L5.43876923,11.4707692 Z" id="Shape"></path>
            </g>
        </g>
    </g>
</svg>