<?xml version="1.0" encoding="UTF-8"?>
<svg width="32px" height="20px" viewBox="0 0 32 20" version="1.1" xmlns="http://www.w3.org/2000/svg" xmlns:xlink="http://www.w3.org/1999/xlink">
    <!-- Generator: Sketch 55.1 (78136) - https://sketchapp.com -->
    <title>形状</title>
    <desc>Created with Sketch.</desc>
    <g id="页面1" stroke="none" stroke-width="1" fill="none" fill-rule="evenodd">
        <g id="07_key_visaul_miancard" transform="translate(-950.000000, -22.000000)" fill="#00438B" fill-rule="nonzero">
            <g id="Header">
                <g id="编组-8" transform="translate(878.000000, 22.000000)">
                    <path d="M101.6,19.2 L74.4,19.2 C73.072,19.2 72,18.128 72,16.8 L72,2.4 C72,1.072 73.072,0 74.4,0 L101.6,0 C102.928,0 104,1.072 104,2.4 L104,16.8 C104,18.128 102.928,19.2 101.6,19.2 Z M81.6,3.2 C79.84,3.2 78.4,4.624 78.4,6.4 C78.4,8.16 79.84,9.6 81.6,9.6 C83.36,9.6 84.8,8.16 84.8,6.4 C84.8,4.624 83.36,3.2 81.6,3.2 L81.6,3.2 Z M86.816,12.208 C86.016,11.6 83.712,11.2 83.712,11.2 C83.712,11.2 82.208,13.008 81.584,13.008 C80.944,13.008 79.456,11.2 79.456,11.2 C79.456,11.2 77.152,11.6 76.352,12.208 C75.552,12.8 75.2,16 75.2,16 L88,16 C88,16 87.76,12.912 86.816,12.208 Z M100.8,4.8 L91.2,4.8 L91.2,6.4 L100.8,6.4 L100.8,4.8 L100.8,4.8 Z M100.8,8 L91.2,8 L91.2,9.6 L100.8,9.6 L100.8,8 L100.8,8 Z M100.8,11.2 L91.2,11.2 L91.2,12.8 L100.8,12.8 L100.8,11.2 L100.8,11.2 Z M100.8,14.4 L91.2,14.4 L91.2,16 L100.8,16 L100.8,14.4 L100.8,14.4 Z" id="形状"></path>
                </g>
            </g>
        </g>
    </g>
</svg>