<?xml version="1.0" encoding="UTF-8"?>
<svg width="16px" height="16px" viewBox="0 0 16 16" version="1.1" xmlns="http://www.w3.org/2000/svg" xmlns:xlink="http://www.w3.org/1999/xlink">
    <!-- Generator: Sketch 55.2 (78181) - https://sketchapp.com -->
    <title>Shape</title>
    <desc>Created with Sketch.</desc>
    <g id="页面1" stroke="none" stroke-width="1" fill="none" fill-rule="evenodd">
        <g id="05_key_visaul_1st_login_tab" transform="translate(-130.000000, -24.000000)" fill="#9B9B9B" fill-rule="nonzero">
            <g id="Header">
                <path d="M145.994731,37.0941663 L141.41685,32.5467752 C143.318875,28.6280588 140.443689,24 136.004064,24 C132.693977,24 130,26.676034 130,29.9647424 C130,34.3034642 134.522847,37.1635005 138.4571,35.4088116 L143.073907,39.9948698 C144.387338,40.1042045 146.107483,38.4441834 145.994731,37.0941663 Z M136.004064,33.946793 C133.793983,33.946793 131.995314,32.1601036 131.995314,29.9647424 C131.995314,27.7693812 133.793983,25.9826918 136.004064,25.9826918 C138.214816,25.9826918 140.013485,27.7693812 140.013485,29.9647424 C140.013485,32.1601036 138.214816,33.946793 136.004064,33.946793 Z" id="Shape"></path>
            </g>
        </g>
    </g>
</svg>