<?xml version="1.0" encoding="UTF-8"?>
<svg width="11px" height="12px" viewBox="0 0 11 12" version="1.1" xmlns="http://www.w3.org/2000/svg" xmlns:xlink="http://www.w3.org/1999/xlink">
    <!-- Generator: Sketch 55.1 (78136) - https://sketchapp.com -->
    <title>形状</title>
    <desc>Created with Sketch.</desc>
    <g id="组件" stroke="none" stroke-width="1" fill="none" fill-rule="evenodd">
        <g id="Card/single" transform="translate(-269.000000, -10.000000)" fill="#FFFFFF" fill-rule="nonzero">
            <g id="复制-页面" transform="translate(269.000000, 10.000000)">
                <path d="M7.33333333,2.75 L0.916666667,2.75 C0.40975,2.75 0,3.15975 0,3.66666667 L0,11 C0,11.506 0.40975,11.9166667 0.916666667,11.9166667 L7.33333333,11.9166667 C7.84025,11.9166667 8.25,11.506 8.25,11 L8.25,3.66666667 C8.25,3.15975 7.84025,2.75 7.33333333,2.75 Z M7.33333333,11 L0.916666667,11 L0.916666667,3.66666667 L7.33333333,3.66666667 L7.33333333,11 Z M10.0833333,0 L3.20833333,0 C2.95533333,0 2.75,0.205333333 2.75,0.458333333 C2.75,0.711333333 2.95533333,0.916666667 3.20833333,0.916666667 L10.0833333,0.916666667 L10.0833333,8.70833333 C10.0833333,8.96133333 10.2886667,9.16666667 10.5416667,9.16666667 C10.7946667,9.16666667 11,8.96133333 11,8.70833333 L11,0.916666667 C11,0.40975 10.59025,0 10.0833333,0 Z" id="形状"></path>
            </g>
        </g>
    </g>
</svg>