<?xml version="1.0" encoding="UTF-8"?>
<svg width="24px" height="18px" viewBox="0 0 24 18" version="1.1" xmlns="http://www.w3.org/2000/svg" xmlns:xlink="http://www.w3.org/1999/xlink">
    <!-- Generator: Sketch 55.1 (78136) - https://sketchapp.com -->
    <title>形状</title>
    <desc>Created with Sketch.</desc>
    <g id="页面1" stroke="none" stroke-width="1" fill="none" fill-rule="evenodd">
        <g id="07_key_visaul_miancard" transform="translate(-362.000000, -698.000000)" fill="#00438B" fill-rule="nonzero">
            <g id="Main&amp;SubCard" transform="translate(0.000000, 104.000000)">
                <g id="编组-5" transform="translate(42.000000, 594.000000)">
                    <g id="编组-4" transform="translate(320.000000, 0.000000)">
                        <path d="M3,0 L21,0 C22.6568542,-3.04359188e-16 24,1.34314575 24,3 L24,15 C24,16.6568542 22.6568542,18 21,18 L3,18 C1.34314575,18 2.02906125e-16,16.6568542 0,15 L0,3 C-2.02906125e-16,1.34314575 1.34314575,-5.83819232e-16 3,0 Z M10,15 L10,3 L6,7.01172108 L8,7.01172108 L8,15 L10,15 Z M14,3 L14,15 L18,10.9882789 L16,10.9882789 L16,3 L14,3 Z" id="形状"></path>
                    </g>
                </g>
            </g>
        </g>
    </g>
</svg>