<?xml version="1.0" encoding="UTF-8"?>
<svg width="36px" height="33px" viewBox="0 0 36 33" version="1.1" 
    xmlns="http://www.w3.org/2000/svg" 
    xmlns:xlink="http://www.w3.org/1999/xlink">
    <!-- Generator: Sketch 54 (76480) - https://sketchapp.com -->
    <title>Shape</title>
    <desc>Created with Sketch.</desc>
    <g id="页面1" stroke="none" stroke-width="1" fill="none" fill-rule="evenodd">
        <g id="6-9.-Main-card-Data-load-failure-（red-text-and-center-of-the-card）--" transform="translate(-494.000000, -191.000000)" fill="#FFF" fill-rule="nonzero">
            <path d="M497.455319,219.571118 C497.12802,220.14217 497.139475,220.15999 497.848078,220.15999 L526.151271,220.15999 C526.859056,220.15999 526.870511,220.14055 526.54403,219.571118 L512.29588,194.66354 C511.973491,194.098968 512.025859,194.098968 511.703469,194.66354 L497.455319,219.570308 L497.455319,219.571118 Z M515.143383,193.065405 L529.392351,217.972983 C530.965024,220.724562 529.344075,223.4 526.151271,223.4 L497.848078,223.4 C494.65282,223.4 493.035962,220.722942 494.607816,217.974603 L508.855966,193.067025 C510.431912,190.310587 513.569074,190.311397 515.144201,193.067025 L515.143383,193.065405 Z M511.999675,217.729982 C512.584398,217.730071 513.124743,217.421319 513.41713,216.920051 C513.709518,216.418784 513.709518,215.801171 513.41713,215.299903 C513.124743,214.798635 512.584398,214.489884 511.999675,214.489972 C511.095961,214.490109 510.36343,215.21537 510.36343,216.109977 C510.36343,217.004584 511.095961,217.729845 511.999675,217.729982 Z M510.363179,203.149937 L510.363179,211.249962 C510.363179,212.144666 511.095863,212.869967 511.999675,212.869967 C512.903486,212.869967 513.63617,212.144666 513.63617,211.249962 L513.63617,203.149937 C513.63617,202.255233 512.903486,201.529932 511.999675,201.529932 C511.095863,201.529932 510.363179,202.255233 510.363179,203.149937 L510.363179,203.149937 Z" id="Shape"></path>
        </g>
    </g>
</svg>
